<svg width="1011" height="1117" viewBox="0 0 1011 1117" fill="none" xmlns="http://www.w3.org/2000/svg">
<path d="M1019.39 212.809C1132.19 1308.46 1306.49 1192.69 199.599 1155.45C-212.269 1141.59 141.251 883.208 141.251 547.381C141.251 211.554 -212.474 -3.94086 199.599 -3.94086C1143.26 -3.94067 1058.92 -84.9498 1019.39 212.809Z" fill="url(#paint0_linear_143_50)"/>
<path d="M193.931 503.658C227.145 542.909 269.198 558.168 289.938 605.878C304.147 638.584 297.485 677.288 307.994 711.481C322.383 758.353 369.691 789.829 416.835 790C463.979 790.171 508.914 762.284 536.906 722.674C546.073 709.687 554.028 695.077 566.895 686.123C585.311 673.29 609.21 674.947 631.26 672.897C685.64 667.839 737.171 635.97 767.537 588.602C767.537 588.602 846.307 491.577 790.552 352.772C774.346 312.427 748.073 275.38 711.831 253.388C675.605 231.396 612.55 230.883 575.243 250.808C535.58 271.997 509.209 318.459 465.731 328.661C440.538 334.573 414.511 326.883 389.138 321.86C353.534 314.802 317.259 310.428 281.312 315.195C239.013 320.783 196.337 342.929 176.612 392.706C169.704 410.136 167.379 429.274 170.129 447.917C172.601 464.646 178.838 485.835 193.931 503.658Z" fill="#EBEBF5"/>
<path d="M520.847 216.973C511.697 204.995 497.455 198.45 483.214 194.759C463.554 189.667 442.421 189.291 423.35 196.4C404.28 203.525 387.566 218.699 380.527 238.521C373.489 258.343 377.368 282.591 391.953 297.252C400.122 305.472 411.613 309.88 422.892 309.863C429.587 310.615 436.43 309.829 442.715 307.3C456.711 301.678 466.992 288.896 480.431 281.908C495.016 274.32 513.776 273.107 523.647 259.556C532.535 247.356 529.998 228.969 520.847 216.973Z" fill="#EBEBF5"/>
<path d="M257.854 641.66C256.332 638.396 254.907 635.098 253.991 631.612C251.028 620.437 253.172 607.689 247.427 597.761C240.208 585.304 222.43 583.031 210.333 590.277C198.236 597.539 191.312 611.722 188.365 625.956C186.548 634.722 186.024 644.052 188.889 652.511C192.228 662.336 199.84 669.975 208.14 675.785C217.372 682.244 228.143 686.977 239.242 686.584C244.185 686.413 249.162 685.046 253.565 682.637C257.035 681.065 260.113 678.638 262.225 675.477C263.763 673.58 265.057 671.461 266.006 669.137C269.967 659.483 266.415 646.735 257.854 641.66Z" fill="#EBEBF5"/>
<path d="M695.281 640.84H348.672C345.415 640.84 342.763 638.054 342.763 634.671V402.514C342.763 399.114 345.431 396.346 348.672 396.346H695.281C698.539 396.346 701.191 399.131 701.191 402.514V634.671C701.207 638.054 698.539 640.84 695.281 640.84Z" fill="#4E3D5F"/>
<path d="M692.335 414.117H351.635V617.139H692.335V414.117Z" fill="#D5CBFB"/>
<path d="M524.121 404.496C524.121 405.727 523.156 406.735 521.977 406.735C520.798 406.735 519.833 405.727 519.833 404.496C519.833 403.266 520.798 402.258 521.977 402.258C523.156 402.258 524.121 403.266 524.121 404.496Z" fill="#D5CBFB"/>
<path d="M749.448 720.623L705.414 647.47C702.926 643.334 698.588 640.84 693.923 640.84H350.047C345.382 640.84 341.028 643.351 338.556 647.47L294.522 720.623C293.278 722.691 292.836 725.151 293.229 727.527H750.742C751.134 725.151 750.692 722.691 749.448 720.623Z" fill="#D5CBFB"/>
<path d="M293.229 727.527C293.31 728.022 293.409 728.501 293.572 728.979L294.26 731.149C295.553 735.182 299.154 737.899 303.214 737.899H740.74C744.799 737.899 748.417 735.182 749.71 731.149L750.398 728.979C750.545 728.501 750.66 728.005 750.742 727.527H293.229Z" fill="#4E3D5F"/>
<path d="M366.613 676.929L368.758 672.008H358.15L355.875 676.929H366.613Z" fill="#4E3D5F"/>
<path d="M385.307 662.917L387.321 657.996H377.057L374.913 662.917H385.307Z" fill="#4E3D5F"/>
<path d="M370.951 672.008L368.807 676.929H379.562L381.575 672.008H370.951Z" fill="#4E3D5F"/>
<path d="M369.658 669.923L371.803 665.002H361.375L359.116 669.923H369.658Z" fill="#4E3D5F"/>
<path d="M585.671 657.996L586.849 662.917H595.984L594.658 657.996H585.671Z" fill="#4E3D5F"/>
<path d="M421.975 672.008L420.535 676.929H431.388L432.763 672.008H421.975Z" fill="#4E3D5F"/>
<path d="M409.289 672.008L407.603 676.929H418.456L419.896 672.008H409.289Z" fill="#4E3D5F"/>
<path d="M396.553 672.008L394.671 676.929H405.475L407.177 672.008H396.553Z" fill="#4E3D5F"/>
<path d="M383.752 672.008L381.739 676.929H392.51L394.409 672.008H383.752Z" fill="#4E3D5F"/>
<path d="M596.737 657.996L598.046 662.917H606.575L605.2 657.996H596.737Z" fill="#4E3D5F"/>
<path d="M458.659 665.002L457.481 669.923H466.058L467.122 665.002H458.659Z" fill="#4E3D5F"/>
<path d="M551.72 657.996L552.522 662.917H562.426L561.493 657.996H551.72Z" fill="#4E3D5F"/>
<path d="M457.104 662.917L458.299 657.996H449.296L447.986 662.917H457.104Z" fill="#4E3D5F"/>
<path d="M445.908 662.917L447.217 657.996H438.77L437.395 662.917H445.908Z" fill="#4E3D5F"/>
<path d="M467.564 662.917L468.628 657.996H460.345L459.167 662.917H467.564Z" fill="#4E3D5F"/>
<path d="M607.279 657.996L608.654 662.917H619.31L617.87 657.996H607.279Z" fill="#4E3D5F"/>
<path d="M414.134 657.996L412.432 662.917H422.565L423.301 660.371L424.005 657.996H414.134Z" fill="#4E3D5F"/>
<path d="M410.304 662.917L412.006 657.996H401.923L400.04 662.917H410.304Z" fill="#4E3D5F"/>
<path d="M389.498 657.996L387.468 662.917H397.896L398.878 660.354L399.778 657.996H389.498Z" fill="#4E3D5F"/>
<path d="M575.342 657.996L576.406 662.917H584.803L583.608 657.996H575.342Z" fill="#4E3D5F"/>
<path d="M563.539 657.996L564.456 662.917H574.359L573.295 657.996H563.539Z" fill="#4E3D5F"/>
<path d="M435.316 662.917L436.691 657.996H426.084L424.643 662.917H435.316Z" fill="#4E3D5F"/>
<path d="M447.774 655.911L449.001 651.332H440.637L439.343 655.911H447.774Z" fill="#4E3D5F"/>
<path d="M437.264 655.911L438.558 651.332H428.032L426.69 655.911H437.264Z" fill="#4E3D5F"/>
<path d="M540.065 657.996L540.622 662.917H550.509L549.707 657.996H540.065Z" fill="#4E3D5F"/>
<path d="M480.824 655.911L481.691 651.332H472.099L471.117 655.911H480.824Z" fill="#4E3D5F"/>
<path d="M469.07 655.911L470.053 651.332H461.966L460.853 655.911H469.07Z" fill="#4E3D5F"/>
<path d="M458.79 655.911L459.904 651.332H451.08L449.853 655.911H458.79Z" fill="#4E3D5F"/>
<path d="M656.649 657.996L658.663 662.917H669.057L666.913 657.996H656.649Z" fill="#4E3D5F"/>
<path d="M388.172 655.911L390.055 651.332H379.955L377.957 655.911H388.172Z" fill="#4E3D5F"/>
<path d="M400.58 655.911L402.332 651.332H392.215L390.349 655.911H400.58Z" fill="#4E3D5F"/>
<path d="M424.611 655.911L425.953 651.332H416.426L414.838 655.911H424.611Z" fill="#4E3D5F"/>
<path d="M669.107 657.996L671.251 662.917H681.613L679.354 657.996H669.107Z" fill="#4E3D5F"/>
<path d="M412.726 655.911L414.298 651.332H404.493L402.725 655.911H412.726Z" fill="#4E3D5F"/>
<path d="M619.965 657.996L621.406 662.917H631.538L629.836 657.996H619.965Z" fill="#4E3D5F"/>
<path d="M479.809 672.008L478.876 676.929H489.14L489.942 672.008H479.809Z" fill="#4E3D5F"/>
<path d="M434.842 672.008L433.467 676.929H442.175L443.485 672.008H434.842Z" fill="#4E3D5F"/>
<path d="M467.646 672.008L466.599 676.929H476.846L477.779 672.008H467.646Z" fill="#4E3D5F"/>
<path d="M445.564 672.008L444.238 676.929H453.732L454.911 672.008H445.564Z" fill="#4E3D5F"/>
<path d="M456.973 672.008L455.795 676.929H464.552L465.6 672.008H456.973Z" fill="#4E3D5F"/>
<path d="M494.263 657.996L493.461 662.917H503.348L503.889 657.996H494.263Z" fill="#4E3D5F"/>
<path d="M492.577 655.911L493.33 651.332H483.721L482.854 655.911H492.577Z" fill="#4E3D5F"/>
<path d="M481.135 665.002L480.202 669.923H490.285L491.088 665.002H481.135Z" fill="#4E3D5F"/>
<path d="M644.192 657.996L646.075 662.917H656.486L654.472 657.996H644.192Z" fill="#4E3D5F"/>
<path d="M502.563 669.923L503.103 665.002H493.117L492.315 669.923H502.563Z" fill="#4E3D5F"/>
<path d="M631.964 657.996L633.65 662.917H643.914L642.031 657.996H631.964Z" fill="#4E3D5F"/>
<path d="M372.719 662.917L374.864 657.996H364.616L362.341 662.917H372.719Z" fill="#4E3D5F"/>
<path d="M599.716 676.929L598.406 672.008H589.043L590.238 676.929H599.716Z" fill="#4E3D5F"/>
<path d="M447.43 665.002L446.12 669.923H455.418L456.597 665.002H447.43Z" fill="#4E3D5F"/>
<path d="M617.264 655.911L615.922 651.332H605.413L606.689 655.911H617.264Z" fill="#4E3D5F"/>
<path d="M641.229 655.911L639.478 651.332H629.656L631.244 655.911H641.229Z" fill="#4E3D5F"/>
<path d="M629.116 655.911L627.544 651.332H618.017L619.359 655.911H629.116Z" fill="#4E3D5F"/>
<path d="M572.837 655.911L571.855 651.332H562.279L563.13 655.911H572.837Z" fill="#4E3D5F"/>
<path d="M561.1 655.911L560.233 651.332H550.64L551.393 655.911H561.1Z" fill="#4E3D5F"/>
<path d="M653.621 655.911L651.738 651.332H641.622L643.39 655.911H653.621Z" fill="#4E3D5F"/>
<path d="M594.101 655.911L592.89 651.332H584.067L585.163 655.911H594.101Z" fill="#4E3D5F"/>
<path d="M583.101 655.911L582.004 651.332H573.901L574.883 655.911H583.101Z" fill="#4E3D5F"/>
<path d="M588.175 676.929L586.98 672.008H578.354L579.418 676.929H588.175Z" fill="#4E3D5F"/>
<path d="M662.231 676.929L660.218 672.008H649.561L651.444 676.929H662.231Z" fill="#4E3D5F"/>
<path d="M636.367 676.929L634.665 672.008H624.074L625.514 676.929H636.367Z" fill="#4E3D5F"/>
<path d="M688.079 676.929L685.82 672.008H675.212L677.357 676.929H688.079Z" fill="#4E3D5F"/>
<path d="M675.163 676.929L673.019 672.008H662.379L664.392 676.929H675.163Z" fill="#4E3D5F"/>
<path d="M649.299 676.929L647.417 672.008H636.793L638.479 676.929H649.299Z" fill="#4E3D5F"/>
<path d="M577.371 676.929L576.307 672.008H566.191L567.108 676.929H577.371Z" fill="#4E3D5F"/>
<path d="M665.996 655.911L663.999 651.332H653.916L655.782 655.911H665.996Z" fill="#4E3D5F"/>
<path d="M683.839 662.917H693.415L690.747 657.996H681.564L683.839 662.917Z" fill="#4E3D5F"/>
<path d="M610.503 676.929L609.112 672.008H600.485L601.795 676.929H610.503Z" fill="#4E3D5F"/>
<path d="M678.388 655.911L676.276 651.332H666.193L668.19 655.911H678.388Z" fill="#4E3D5F"/>
<path d="M623.419 676.929L621.979 672.008H611.191L612.582 676.929H623.419Z" fill="#4E3D5F"/>
<path d="M689.618 655.911L687.129 651.332H678.486L680.598 655.911H689.618Z" fill="#4E3D5F"/>
<path d="M604.61 655.911L603.334 651.332H594.952L596.18 655.911H604.61Z" fill="#4E3D5F"/>
<path d="M540.163 676.929L539.623 672.008H529.278L529.458 676.929H540.163Z" fill="#4E3D5F"/>
<path d="M386.617 665.002L384.604 669.923H395.195L397.093 665.002H386.617Z" fill="#4E3D5F"/>
<path d="M551.655 669.923L550.853 665.002H540.851L541.408 669.923H551.655Z" fill="#4E3D5F"/>
<path d="M382.426 669.923L384.456 665.002H373.996L372.883 667.582L371.852 669.923H382.426Z" fill="#4E3D5F"/>
<path d="M470.675 657.996L469.611 662.917H479.498L480.431 657.996H470.675Z" fill="#4E3D5F"/>
<path d="M482.461 657.996L481.528 662.917H491.431L492.233 657.996H482.461Z" fill="#4E3D5F"/>
<path d="M424.038 665.002L422.597 669.923H433.352L434.727 665.002H424.038Z" fill="#4E3D5F"/>
<path d="M399.238 665.002L397.355 669.923H407.897L409.583 665.002H399.238Z" fill="#4E3D5F"/>
<path d="M436.806 665.002L435.431 669.923H444.041L445.351 665.002H436.806Z" fill="#4E3D5F"/>
<path d="M528.999 665.002L529.196 669.923H539.394L538.838 665.002H528.999Z" fill="#4E3D5F"/>
<path d="M411.712 665.002L410.009 669.923H420.502L421.943 665.002H411.712Z" fill="#4E3D5F"/>
<path d="M537.823 655.911L537.315 651.332H528.476L528.656 655.911H537.823Z" fill="#4E3D5F"/>
<path d="M565.078 676.929L564.145 672.008H554.012L554.814 676.929H565.078Z" fill="#4E3D5F"/>
<path d="M517.475 651.332L517.312 655.911H526.659L526.479 651.332H517.475Z" fill="#4E3D5F"/>
<path d="M517.23 657.996L517.033 662.917H526.92L526.74 657.996H517.23Z" fill="#4E3D5F"/>
<path d="M538.608 662.917L538.068 657.996H528.737L528.918 662.917H538.608Z" fill="#4E3D5F"/>
<path d="M549.363 655.911L548.61 651.332H539.329L539.836 655.911H549.363Z" fill="#4E3D5F"/>
<path d="M516.951 665.002L516.771 669.923H527.199L527.002 665.002H516.951Z" fill="#4E3D5F"/>
<path d="M516.69 672.008L516.493 676.929H527.461L527.281 672.008H516.69Z" fill="#4E3D5F"/>
<path d="M515.314 655.911L515.478 651.332H506.639L506.131 655.911H515.314Z" fill="#4E3D5F"/>
<path d="M494.607 655.911H504.118L504.642 651.332H495.344L494.607 655.911Z" fill="#4E3D5F"/>
<path d="M563.752 669.923L562.819 665.002H552.866L553.668 669.923H563.752Z" fill="#4E3D5F"/>
<path d="M469.169 665.002L468.105 669.923H478.172L479.105 665.002H469.169Z" fill="#4E3D5F"/>
<path d="M341.83 679.014L339.505 683.32H350.719L352.699 679.014H341.83Z" fill="#4E3D5F"/>
<path d="M608.539 669.923L607.164 665.002H598.603L599.929 669.923H608.539Z" fill="#4E3D5F"/>
<path d="M602.351 679.014L603.497 683.32H612.288L611.076 679.014H602.351Z" fill="#4E3D5F"/>
<path d="M586.489 669.923L585.294 665.002H576.848L577.912 669.923H586.489Z" fill="#4E3D5F"/>
<path d="M514.496 676.929L514.692 672.008H504.331L503.79 676.929H514.496Z" fill="#4E3D5F"/>
<path d="M639.199 679.014L640.689 683.32H651.755L650.102 679.014H639.199Z" fill="#4E3D5F"/>
<path d="M672.102 669.923L669.958 665.002H659.514L661.527 669.923H672.102Z" fill="#4E3D5F"/>
<path d="M652.246 679.014L653.899 683.32H664.85L663.082 679.014H652.246Z" fill="#4E3D5F"/>
<path d="M491.971 672.008L491.169 676.929H501.777L502.333 672.008H491.971Z" fill="#4E3D5F"/>
<path d="M345.628 672.008L342.959 676.929H353.665L355.924 672.008H345.628Z" fill="#4E3D5F"/>
<path d="M542.406 679.014L542.897 683.32H553.832L553.128 679.014H542.406Z" fill="#4E3D5F"/>
<path d="M380.888 679.014L379.12 683.32H390.055L391.708 679.014H380.888Z" fill="#4E3D5F"/>
<path d="M514.414 679.014H503.561L503.07 683.32H514.25L514.414 679.014Z" fill="#4E3D5F"/>
<path d="M659.35 669.923L657.337 665.002H646.877L648.759 669.923H659.35Z" fill="#4E3D5F"/>
<path d="M354.909 679.014L352.928 683.32H363.831L365.713 679.014H354.909Z" fill="#4E3D5F"/>
<path d="M564.865 665.002L565.798 669.923H575.865L574.801 665.002H564.865Z" fill="#4E3D5F"/>
<path d="M613.155 679.014L614.367 683.32H625.302L624.025 679.014H613.155Z" fill="#4E3D5F"/>
<path d="M567.517 679.014L568.319 683.32H578.747L577.813 679.014H567.517Z" fill="#4E3D5F"/>
<path d="M621.373 669.923L619.932 665.002H609.243L610.618 669.923H621.373Z" fill="#4E3D5F"/>
<path d="M633.945 669.923L632.259 665.002H622.011L623.452 669.923H633.945Z" fill="#4E3D5F"/>
<path d="M555.158 679.014L555.862 683.32H566.289L565.471 679.014H555.158Z" fill="#4E3D5F"/>
<path d="M626.12 679.014L627.38 683.32H638.561L637.088 679.014H626.12Z" fill="#4E3D5F"/>
<path d="M353.223 657.996L350.555 662.917H360.131L362.39 657.996H353.223Z" fill="#4E3D5F"/>
<path d="M678.257 679.014L680.14 683.32H691.042L689.045 679.014H678.257Z" fill="#4E3D5F"/>
<path d="M356.824 651.332L354.353 655.911H363.356L365.467 651.332H356.824Z" fill="#4E3D5F"/>
<path d="M646.615 669.923L644.716 665.002H634.37L636.073 669.923H646.615Z" fill="#4E3D5F"/>
<path d="M488.092 683.32L488.796 679.014H393.869L392.215 683.32H488.092Z" fill="#4E3D5F"/>
<path d="M579.86 679.014L580.793 683.32H589.714L588.683 679.014H579.86Z" fill="#4E3D5F"/>
<path d="M505.345 662.917H515.036L515.233 657.996H505.902L505.345 662.917Z" fill="#4E3D5F"/>
<path d="M698.326 672.008H688.03L693.252 683.32H704.465L698.326 672.008Z" fill="#4E3D5F"/>
<path d="M687.064 669.923H697.197L694.528 665.002H684.805L687.064 669.923Z" fill="#4E3D5F"/>
<path d="M684.854 669.923L682.579 665.002H672.151L674.296 669.923H684.854Z" fill="#4E3D5F"/>
<path d="M501.073 683.32L501.548 679.014H490.826L490.122 683.32H501.073Z" fill="#4E3D5F"/>
<path d="M516.411 679.014L516.248 683.32H540.884L540.409 679.014H516.411Z" fill="#4E3D5F"/>
<path d="M665.26 679.014L667.011 683.32H677.946L676.064 679.014H665.26Z" fill="#4E3D5F"/>
<path d="M597.85 669.923L596.54 665.002H587.357L588.552 669.923H597.85Z" fill="#4E3D5F"/>
<path d="M590.729 679.014L591.777 683.32H601.418L600.273 679.014H590.729Z" fill="#4E3D5F"/>
<path d="M349.425 665.002L346.757 669.923H356.89L359.165 665.002H349.425Z" fill="#4E3D5F"/>
<path d="M375.764 655.911L377.761 651.332H367.694L365.582 655.911H375.764Z" fill="#4E3D5F"/>
<path d="M367.89 679.014L366.024 683.32H376.943L378.71 679.014H367.89Z" fill="#4E3D5F"/>
<path d="M514.758 669.923L514.954 665.002H505.116L504.576 669.923H514.758Z" fill="#4E3D5F"/>
<path d="M551.999 672.008H541.637L542.177 676.929H552.801L551.999 672.008Z" fill="#4E3D5F"/>
<path d="M584.525 720.025H459.429C458.889 720.025 458.414 719.769 458.086 719.324C457.775 718.88 457.677 718.316 457.841 717.786L465.797 690.805C466.009 690.07 466.648 689.591 467.384 689.591H576.569C577.306 689.591 577.944 690.087 578.157 690.805L586.113 717.786C586.276 718.316 586.178 718.88 585.867 719.324C585.54 719.769 585.049 720.025 584.525 720.025ZM467.384 691.129C467.303 691.129 467.237 691.181 467.204 691.266L459.249 718.248C459.232 718.316 459.249 718.385 459.281 718.419C459.314 718.453 459.347 718.487 459.429 718.487H584.525C584.607 718.487 584.64 718.453 584.672 718.419C584.689 718.385 584.721 718.333 584.705 718.248L576.749 691.266C576.733 691.198 576.651 691.129 576.586 691.129H467.384Z" fill="#4E3D5F"/>
<path d="M489.432 588.318C492.673 597.443 485.699 608.55 473.864 613.147C462.013 617.743 455.268 611.95 450.521 603.56C443.597 591.308 450.276 584.695 462.111 580.099C473.946 575.519 486.174 579.193 489.432 588.318Z" fill="#FFF6DC"/>
<path d="M371.161 487.841C371.161 487.841 400.545 519.436 424.641 576.151C424.641 576.151 436.067 606.944 443.564 614.633C443.564 614.633 437.491 607.508 446.756 596.11C453.566 587.737 463.486 582.61 473.979 582.235C479.855 582.012 485.978 583.294 489.464 588.455C489.464 588.455 450.259 540.25 424.657 498.658C414.426 482.048 409.581 468.309 407.453 457.817C407.453 457.817 405.521 455.442 401.674 453.46C387.531 446.163 370.883 455.989 368.411 472.24C368.182 473.76 368.035 475.367 368.002 477.093C368.002 477.093 367.806 484.304 371.161 487.841Z" fill="white"/>
<path d="M443.548 614.633C443.548 614.633 456.414 630.833 485.552 611.387C485.552 611.387 503.591 598.827 494.588 576.954C494.588 576.954 475.894 562.396 461.145 543.958C446.396 525.52 428.16 500.401 413.035 467.182L409.172 464.738C409.172 464.738 411.954 480.493 429.961 507.031C447.967 533.568 481.198 578.014 481.198 578.014L486.272 584.405C489.186 588.079 490.185 593.12 488.58 597.58C486.289 603.936 479.544 611.455 460.752 612.6L449.015 593.581C448.999 593.581 437.606 603.441 443.548 614.633Z" fill="#F4E7BD"/>
<path d="M471.998 556.295C471.998 556.295 438.228 519.539 414.557 461.355C414.557 461.355 410.285 454.263 407.567 450.999C407.584 451.016 428.16 517.403 471.998 556.295Z" fill="white"/>
<path d="M407.75 551.863C414.854 538.483 430.209 529.648 444.811 530.4C450.016 530.674 450 523.924 444.811 523.651C427.475 522.745 410.304 531.767 401.89 547.591C401.89 547.608 405.213 556.613 407.75 551.863Z" fill="#F0C64B"/>
<path d="M355.433 576.452H289.169C280.378 576.452 273.192 568.951 273.192 559.774V523.753C273.192 514.577 280.378 507.075 289.169 507.075H355.433C364.223 507.075 371.41 514.577 371.41 523.753V559.774C371.41 568.951 364.223 576.452 355.433 576.452Z" fill="#E32944"/>
<path d="M311.759 529.05L332.843 541.764L322.301 548.12L311.759 554.46V529.05Z" fill="#D5CBFB"/>
<path d="M303.116 423.447C303.116 402.258 286.664 385.102 266.383 385.102C246.084 385.102 229.649 402.275 229.649 423.447C229.649 438.792 238.292 452.035 250.766 458.17V470.405H281.999V458.17C294.473 452.035 303.116 438.792 303.116 423.447Z" fill="white"/>
<path d="M282.998 476.71H249.751C248.081 476.71 246.723 475.292 246.723 473.549C246.723 471.806 248.081 470.387 249.751 470.387H282.998C284.667 470.387 286.026 471.806 286.026 473.549C286.026 475.292 284.667 476.71 282.998 476.71Z" fill="#F0C64B"/>
<path d="M266.366 494.652C259.655 494.652 254.22 488.979 254.22 481.973V479.871H278.512V481.973C278.512 488.979 273.078 494.652 266.366 494.652Z" fill="#F0C64B"/>
<path d="M282.998 483.033H249.751C248.081 483.033 246.723 481.614 246.723 479.871C246.723 478.128 248.081 476.71 249.751 476.71H282.998C284.667 476.71 286.026 478.128 286.026 479.871C286.026 481.614 284.667 483.033 282.998 483.033Z" fill="#D8A32B"/>
<path d="M269.722 470.388H268.003V417.107C268.003 416.168 267.283 415.416 266.383 415.416C265.482 415.416 264.762 416.168 264.762 417.107V470.388H263.043V417.107C263.043 415.176 264.549 413.621 266.383 413.621C268.216 413.621 269.722 415.194 269.722 417.107V470.388Z" fill="#F0C64B"/>
<path d="M208.631 410.375L207.616 415.86L222.97 418.936C223.183 417.056 223.494 415.228 223.904 413.433L208.631 410.375Z" fill="#ED6D72"/>
<path d="M220.793 385.085L217.552 389.545L229.797 399.216C230.779 397.644 231.843 396.158 233.005 394.739L220.793 385.085Z" fill="#ED6D72"/>
<path d="M242.254 368.014L237.474 370.526L244.365 384.777C245.904 383.837 247.492 383 249.145 382.248L242.254 368.014Z" fill="#ED6D72"/>
<path d="M325.133 415.86L324.118 410.375L308.829 413.433C309.238 415.228 309.565 417.073 309.762 418.936L325.133 415.86Z" fill="#ED6D72"/>
<path d="M315.197 389.545L311.955 385.085L299.744 394.739C300.89 396.158 301.97 397.661 302.952 399.216L315.197 389.545Z" fill="#ED6D72"/>
<path d="M295.275 370.526L290.495 368.014L283.62 382.248C285.273 382.983 286.861 383.837 288.4 384.777L295.275 370.526Z" fill="#ED6D72"/>
<path d="M269.116 378.66L268.985 362.443L263.632 362.494L263.763 378.66C264.631 378.608 265.499 378.574 266.383 378.574C267.299 378.557 268.2 378.608 269.116 378.66Z" fill="#ED6D72"/>
<path d="M855.265 717.374H700V749.328H855.265V717.374Z" fill="#F0C64B"/>
<path d="M714.995 717.374H708.741V749.328H714.995V717.374Z" fill="#DB495E"/>
<path d="M724.391 717.374H718.137V749.328H724.391V717.374Z" fill="#DB495E"/>
<path d="M837.144 717.374H830.891V749.328H837.144V717.374Z" fill="#DB495E"/>
<path d="M846.524 717.374H840.271V749.328H846.524V717.374Z" fill="#DB495E"/>
<path d="M870.211 699.568V694.647C870.211 687.658 864.76 681.967 858.064 681.967H719.676V712.23H858.064C864.76 712.23 870.211 706.54 870.211 699.568Z" fill="white"/>
<path d="M858.064 676.653H718.776V681.984H858.064C864.76 681.984 870.211 687.675 870.211 694.664V699.585C870.211 706.574 864.76 712.264 858.064 712.264H718.776V717.562H858.064C867.575 717.562 875.302 709.496 875.302 699.568V694.647C875.318 684.719 867.575 676.653 858.064 676.653Z" fill="#25AD3B"/>
<path d="M860.782 688.751H719.693V691.178H860.782V688.751Z" fill="#F5F5FF"/>
<path d="M860.782 696.031H719.693V698.457H860.782V696.031Z" fill="#F5F5FF"/>
<path d="M860.782 703.327H719.693V705.754H860.782V703.327Z" fill="#F5F5FF"/>
<path d="M707.825 660.625V656.199C707.825 649.91 712.735 644.784 718.759 644.784H843.365V672.022H718.759C712.735 672.039 707.825 666.93 707.825 660.625Z" fill="white"/>
<path d="M718.759 640H844.183V644.784H718.759C712.735 644.784 707.825 649.91 707.825 656.199V660.625C707.825 666.913 712.735 672.039 718.759 672.039H844.183V676.824H718.759C710.198 676.824 703.241 669.562 703.241 660.625V656.199C703.241 647.262 710.198 640 718.759 640Z" fill="#DB495E"/>
<path d="M716.315 653.068H843.359V650.88H716.315V653.068Z" fill="#F5F5FF"/>
<path d="M716.315 659.641H843.359V657.454H716.315V659.641Z" fill="#F5F5FF"/>
<path d="M716.315 666.214H843.359V664.026H716.315V666.214Z" fill="#F5F5FF"/>
<path d="M614.117 296.201C619.978 296.201 624.741 301.02 624.741 306.949V308.59C626.869 314.861 628.179 323.029 628.179 331.983C628.179 340.937 626.886 349.105 624.741 355.376V357.017C624.741 362.946 619.994 367.765 614.117 367.765C606.358 367.765 600.056 351.754 600.056 332C600.056 312.229 606.358 296.201 614.117 296.201Z" fill="#F0C64B"/>
<path d="M604.836 332.427C604.836 344.509 605.736 354.317 606.833 354.317C607.946 354.317 608.83 344.526 608.83 332.427C608.83 320.346 607.93 310.538 606.833 310.538C605.736 310.555 604.836 320.346 604.836 332.427Z" fill="#D8A32B"/>
<path d="M639.605 315.767V349.105C638.885 357.359 631.616 364.997 621.877 367.748V297.124C631.616 299.875 638.885 307.53 639.605 315.767Z" fill="#F28282"/>
<path d="M621.877 371.576C623.464 371.576 624.758 370.26 624.758 368.654V296.201C624.758 294.595 623.464 293.279 621.877 293.279C620.289 293.279 618.995 294.595 618.995 296.201V368.654C618.995 370.26 620.289 371.576 621.877 371.576Z" fill="#E9383F"/>
<path d="M558.952 296.201C553.092 296.201 548.328 301.02 548.328 306.949V308.59C546.2 314.861 544.891 323.029 544.891 331.983C544.891 340.937 546.184 349.105 548.328 355.376V357.017C548.328 362.946 553.075 367.765 558.952 367.765C566.711 367.765 573.013 351.754 573.013 332C573.013 312.229 566.711 296.201 558.952 296.201Z" fill="#F0C64B"/>
<path d="M568.233 332.427C568.233 344.509 567.333 354.317 566.236 354.317C565.123 354.317 564.239 344.526 564.239 332.427C564.239 320.346 565.14 310.538 566.236 310.538C567.333 310.555 568.233 320.346 568.233 332.427Z" fill="#D8A32B"/>
<path d="M533.465 315.767V349.105C534.185 357.359 541.453 364.997 551.193 367.748V297.124C541.453 299.875 534.185 307.53 533.465 315.767Z" fill="#F28282"/>
<path d="M551.193 371.576C549.605 371.576 548.312 370.26 548.312 368.654V296.201C548.312 294.595 549.605 293.279 551.193 293.279C552.781 293.279 554.074 294.595 554.074 296.201V368.654C554.074 370.26 552.781 371.576 551.193 371.576Z" fill="#E9383F"/>
<path d="M622.138 252.114C616.376 247.142 608.83 244.014 601.66 242.169C594.31 240.289 586.616 239.794 579.103 240.717C576.827 240.99 574.568 241.366 572.342 241.861C570.82 242.203 569.134 242.459 567.71 243.16C566.22 243.895 564.779 244.698 563.306 245.484C559.328 247.569 555.367 249.671 551.389 251.755C549.801 252.593 549.998 255.002 551.389 255.891C555.056 258.215 559.263 258.505 563.421 257.822C566.351 257.343 569.019 256.198 571.786 255.19C576.762 253.396 582.164 252.507 587.419 252.473C592.117 252.456 596.864 253.191 601.202 255.122C607.619 258.009 615.296 259.923 621.664 255.873C622.842 255.139 623.317 253.122 622.138 252.114Z" fill="#F28282"/>
<path d="M587.533 238.051L587.55 238C587.206 238 586.878 238.017 586.551 238.034C586.224 238.034 585.88 238 585.552 238L585.569 238.051C552.502 239.144 526 267.459 526 302.25V341.262C526 345.585 529.356 349.105 533.514 349.105V310.657L533.35 309.666C530.813 294.082 534.054 277.849 543.172 265.221C547.428 259.325 553.19 253.772 560.998 249.756C561.096 249.705 561.178 249.653 561.276 249.619C577.171 241.52 595.947 241.52 611.842 249.619C611.94 249.671 612.022 249.722 612.12 249.756C619.978 253.789 625.756 259.394 630.029 265.323C639.081 277.934 642.289 294.133 639.768 309.666L639.605 310.657V349.105C643.746 349.105 647.118 345.602 647.118 341.262V302.267C647.086 267.476 620.6 239.161 587.533 238.051Z" fill="#E9383F"/>
<path d="M830.677 325H733V472.451H830.677V325Z" fill="#D5CBFB"/>
<path d="M820.135 346.633H743.542V349.897H820.135V346.633Z" fill="#4E3D5F"/>
<path d="M820.135 361.602H743.542V364.866H820.135V361.602Z" fill="#4E3D5F"/>
<path d="M820.135 376.588H743.542V379.852H820.135V376.588Z" fill="#4E3D5F"/>
<path d="M820.135 391.574H743.542V394.838H820.135V391.574Z" fill="#4E3D5F"/>
<path d="M820.135 406.56H743.542V409.824H820.135V406.56Z" fill="#4E3D5F"/>
<path d="M820.135 421.529H743.542V424.793H820.135V421.529Z" fill="#4E3D5F"/>
<path d="M820.135 457.926H743.542V458.832H820.135V457.926Z" fill="white"/>
<path d="M754.019 443.761C757.931 444.444 761.909 444.649 765.854 444.29C769.504 443.966 773.384 443.316 776.789 441.847C779.211 440.804 781.863 437.934 780.161 435.046C778.655 432.5 774.906 432.243 772.401 432.858C769.488 433.576 766.901 435.575 765.133 438.053C763.366 440.531 762.138 444.119 764.233 446.802C766.165 449.28 769.717 449.775 772.565 449.365C774.169 449.126 775.725 448.579 777.132 447.725C777.787 447.332 778.393 446.853 778.982 446.358C779.735 445.709 780.537 444.837 781.568 444.683C782.796 444.512 783.091 445.469 783.86 446.187C784.4 446.683 785.104 446.836 785.808 446.768C786.676 446.683 787.462 446.29 788.264 445.965C789.279 445.555 790.277 445.401 791.357 445.435C796.023 445.555 800.704 446.204 805.353 446.597C806.188 446.666 806.172 445.862 805.353 445.794C801.899 445.504 798.446 444.666 794.975 444.376C793.404 444.239 791.767 443.983 790.195 444.119C788.706 444.239 787.511 445.059 786.086 445.367C784.482 445.726 784.27 444.034 782.976 443.521C781.83 443.06 780.586 443.453 779.604 444.137C778.409 444.957 777.443 446.05 776.183 446.768C774.759 447.571 773.155 448.05 771.534 448.152C768.915 448.323 765.019 447.486 764.462 444.256C763.955 441.3 766.312 438.258 768.342 436.515C770.437 434.721 773.269 433.542 776.003 434.072C777.312 434.328 778.998 434.96 779.326 436.481C779.702 438.258 778.196 439.694 776.821 440.394C775.233 441.214 773.384 441.625 771.649 442.035C769.733 442.479 767.785 442.804 765.837 442.975C762.007 443.316 758.144 443.521 754.346 442.855C753.544 442.684 753.2 443.624 754.019 443.761Z" fill="#4E3D5F"/>
<path d="M863.318 414.506L846.146 404.783L851.188 395.077C852.285 392.975 854.806 392.189 856.819 393.334L866.707 398.922C868.72 400.067 869.473 402.698 868.376 404.8L863.318 414.506Z" fill="#D5CBFB"/>
<path d="M862.1 416.758L844.936 407.036L795.34 502.449L812.504 512.171L862.1 416.758Z" fill="#E9383F"/>
<path d="M856.582 413.642L850.453 410.171L800.858 505.584L806.987 509.055L856.582 413.642Z" fill="#E9383F"/>
<path d="M866.37 413.624L845.12 401.588L842.887 405.883L864.137 417.919L866.37 413.624Z" fill="#F0C64B"/>
<path d="M812.54 512.215L795.368 502.492L793.616 518.742L800.426 522.604L812.54 512.215Z" fill="#D5CBFB"/>
<path d="M800.426 522.604L793.616 518.742L792.487 529.405L800.426 522.604Z" fill="#E9383F"/>
<path d="M237.441 654.407V662.387C227.177 662.985 218.993 671.871 218.993 682.739V689.523C218.993 700.664 227.587 709.721 238.194 709.926C242.057 731.764 260.375 748.323 282.408 748.323C307.257 748.323 327.392 727.304 327.392 701.365V654.407H237.441ZM225.311 689.523V682.739C225.311 675.511 230.664 669.564 237.441 668.983V701.365C237.441 702.014 237.458 702.646 237.49 703.296C230.681 702.715 225.311 696.768 225.311 689.523Z" fill="#E9383F"/>
<path d="M304.998 600.956C299.269 597.88 291.755 599.333 287.156 604.032C286.337 597.18 280.1 592.002 273.552 590.977C267.005 589.952 260.375 592.344 254.629 595.779C248.998 599.145 243.743 603.81 241.386 610.115C239.029 616.421 240.355 624.555 245.691 628.399C247.869 629.954 250.635 630.399 253.221 629.937C253.565 632.09 254.384 634.124 255.71 635.833C260.162 641.489 269.362 642.053 274.42 636.978C278.25 640.515 284.143 641.42 288.792 639.165C289.807 638.669 290.74 638.037 291.592 637.285C291.248 641.984 289.545 646.581 286.664 650.221C292.246 648.187 297.01 643.847 299.695 638.362C301.446 634.756 302.281 630.689 302.166 626.639C306.504 625.768 310.498 622.453 311.906 618.01C313.952 611.636 310.711 604.032 304.998 600.956Z" fill="#D5CBFB"/>
<path d="M535.904 467.478C535.659 467.461 535.413 467.444 535.184 467.444C530.404 467.444 526.508 471.511 526.508 476.501C526.508 481.49 530.404 485.557 535.184 485.557C535.43 485.557 535.675 485.54 535.888 485.523C540.357 485.147 543.86 481.166 543.86 476.501C543.843 471.836 540.357 467.871 535.904 467.478Z" fill="#4E3D5F"/>
<path d="M566.319 476.518C566.319 474.946 565.73 473.476 564.666 472.365C563.602 471.255 562.194 470.64 560.688 470.64H557.479L557.152 469.512C556.726 468.025 556.153 466.59 555.45 465.223L554.909 464.18L557.185 461.805C559.378 459.515 559.378 455.807 557.185 453.517C556.121 452.407 554.713 451.809 553.207 451.809C551.701 451.809 550.293 452.424 549.229 453.517L546.954 455.893L545.955 455.329C544.646 454.594 543.271 453.996 541.846 453.552L540.766 453.21V449.861C540.766 447.075 538.867 444.666 536.264 444.119C535.904 444.034 535.528 444 535.151 444C533.645 444 532.237 444.615 531.173 445.725C530.109 446.836 529.52 448.306 529.52 449.878V453.227L528.44 453.569C527.016 454.013 525.641 454.611 524.331 455.346L523.332 455.91L521.057 453.535C518.864 451.245 515.311 451.245 513.118 453.535C512.054 454.645 511.481 456.115 511.481 457.687C511.481 459.259 512.07 460.729 513.118 461.839L515.393 464.215L514.853 465.257C514.149 466.624 513.576 468.059 513.151 469.546L512.823 470.674H509.615C506.521 470.674 504 473.305 504 476.535C504 478.107 504.589 479.577 505.653 480.687C506.717 481.798 508.125 482.413 509.631 482.413H512.84L513.167 483.541C513.593 485.028 514.165 486.463 514.869 487.83L515.41 488.872L513.134 491.248C510.941 493.537 510.941 497.245 513.134 499.535C514.198 500.646 515.606 501.244 517.112 501.244C518.618 501.244 520.026 500.629 521.09 499.535L523.365 497.16L524.364 497.724C525.673 498.459 527.048 499.057 528.472 499.501L529.553 499.843V503.192C529.553 506.422 532.074 509.053 535.168 509.053C535.528 509.053 535.904 509.019 536.264 508.951L536.428 508.917C537.459 508.677 538.392 508.13 539.129 507.344C540.193 506.234 540.782 504.764 540.782 503.192V499.843L541.863 499.501C543.287 499.057 544.662 498.459 545.972 497.724L546.97 497.16L549.245 499.535C550.31 500.646 551.717 501.244 553.223 501.244C554.729 501.244 556.137 500.629 557.201 499.535C558.265 498.425 558.838 496.955 558.838 495.383C558.838 493.811 558.249 492.341 557.201 491.231L554.926 488.855L555.466 487.813C556.17 486.446 556.743 485.011 557.168 483.524L557.496 482.396H560.704C563.798 482.379 566.319 479.747 566.319 476.518ZM546.79 487.728C544.089 490.769 540.439 492.632 536.477 492.974C536.052 493.008 535.61 493.025 535.168 493.025C526.443 493.025 519.338 485.609 519.338 476.501C519.338 467.393 526.443 459.977 535.168 459.977C535.61 459.977 536.068 459.994 536.494 460.028C540.422 460.37 544.089 462.232 546.79 465.274C549.507 468.333 550.997 472.314 550.997 476.501C550.997 480.687 549.507 484.669 546.79 487.728Z" fill="#4E3D5F"/>
<path d="M579.577 550.342C579.511 550.496 579.446 550.65 579.38 550.803C578.251 553.845 579.724 557.28 582.638 558.442C585.552 559.621 588.842 558.083 589.955 555.041C590.021 554.887 590.07 554.734 590.103 554.58C590.921 551.641 589.431 548.497 586.698 547.386C583.98 546.292 580.837 547.591 579.577 550.342Z" fill="#E9383F"/>
<path d="M591.518 533.254C590.601 532.895 589.602 532.912 588.718 533.322C587.818 533.732 587.131 534.484 586.787 535.441L586.034 537.492L585.297 537.44C584.331 537.372 583.365 537.389 582.4 537.509L581.663 537.611L580.812 535.612C579.993 533.681 577.816 532.81 575.966 533.664C575.066 534.074 574.379 534.826 574.035 535.783C573.691 536.74 573.707 537.782 574.1 538.705L574.951 540.704L574.395 541.217C573.658 541.883 572.987 542.618 572.398 543.404L571.94 544.019L569.975 543.233C568.355 542.584 566.505 543.216 565.572 544.754C565.441 544.976 565.326 545.198 565.244 545.438C564.901 546.394 564.917 547.437 565.31 548.36C565.703 549.299 566.423 550.017 567.34 550.376L569.304 551.162L569.255 551.931C569.189 552.939 569.206 553.947 569.337 554.956L569.435 555.724L567.52 556.613C565.67 557.467 564.835 559.74 565.654 561.671C566.046 562.611 566.767 563.329 567.683 563.687C568.6 564.046 569.599 564.029 570.483 563.619L572.398 562.731L572.889 563.312C573.527 564.08 574.231 564.781 574.984 565.396L575.574 565.875L574.82 567.925C574.1 569.89 575.033 572.112 576.932 572.881C577.849 573.24 578.847 573.222 579.731 572.812C580.632 572.402 581.319 571.65 581.663 570.693L582.416 568.643L583.153 568.694C584.118 568.763 585.084 568.745 586.05 568.609L586.787 568.506L587.638 570.506C588.456 572.436 590.634 573.308 592.483 572.454C593.384 572.043 594.071 571.292 594.415 570.335C594.759 569.378 594.742 568.335 594.349 567.413L593.498 565.413L594.055 564.901C594.791 564.234 595.463 563.499 596.052 562.713L596.51 562.098L598.475 562.884C600.357 563.636 602.485 562.662 603.222 560.68C603.304 560.441 603.369 560.202 603.418 559.962L603.435 559.843C603.533 559.142 603.435 558.407 603.156 557.758C602.763 556.818 602.043 556.1 601.126 555.742L599.162 554.956L599.211 554.187C599.277 553.178 599.26 552.17 599.146 551.162L599.047 550.393L600.963 549.504C601.863 549.094 602.534 548.342 602.894 547.386C603.254 546.429 603.222 545.386 602.829 544.464C602.436 543.524 601.716 542.806 600.799 542.447C599.882 542.088 598.884 542.105 598 542.516L596.085 543.404L595.594 542.823C594.955 542.054 594.251 541.354 593.498 540.738L592.909 540.26L593.662 538.209C594.333 536.244 593.4 534.023 591.518 533.254ZM593.482 548.308C594.628 550.735 594.857 553.503 594.12 556.1C594.038 556.374 593.957 556.664 593.842 556.955C591.796 562.508 585.805 565.277 580.484 563.141C575.164 561.005 572.512 554.75 574.559 549.197C574.657 548.906 574.788 548.633 574.902 548.36C576.016 545.933 577.963 544.053 580.37 543.045C582.793 542.037 585.461 542.02 587.9 542.994C590.355 543.985 592.336 545.865 593.482 548.308Z" fill="#E9383F"/>
<defs>
<linearGradient id="paint0_linear_143_50" x1="551.5" y1="-14" x2="578.929" y2="1805.19" gradientUnits="userSpaceOnUse">
<stop stop-color="#E9383F"/>
<stop offset="1" stop-color="#E9383F" stop-opacity="0"/>
</linearGradient>
</defs>
</svg>
